<mxfile host="app.diagrams.net" agent="Mozilla/5.0 (X11; Linux x86_64) AppleWebKit/537.36 (KHTML, like Gecko) Chrome/138.0.0.0 Safari/537.36" version="27.1.4">
  <diagram name="Page-1" id="FwxoWW13N-LOrV1WlG6z">
    <mxGraphModel dx="1783" dy="2241" grid="1" gridSize="10" guides="1" tooltips="1" connect="1" arrows="1" fold="1" page="1" pageScale="1" pageWidth="850" pageHeight="1100" math="0" shadow="0">
      <root>
        <mxCell id="0" />
        <mxCell id="1" parent="0" />
        <mxCell id="AWujn3hZ1XxI2UlkZ9dO-1" value="&lt;font style=&quot;font-size: 15px;&quot;&gt;FETCH&lt;/font&gt;" style="rounded=0;whiteSpace=wrap;html=1;align=center;fillColor=none;" vertex="1" parent="1">
          <mxGeometry x="345" y="120" width="540" height="50" as="geometry" />
        </mxCell>
        <mxCell id="AWujn3hZ1XxI2UlkZ9dO-2" value="&lt;span style=&quot;font-size: 15px;&quot;&gt;DECODE&lt;/span&gt;" style="rounded=0;whiteSpace=wrap;html=1;align=center;fillColor=none;" vertex="1" parent="1">
          <mxGeometry x="345" y="190" width="540" height="50" as="geometry" />
        </mxCell>
        <mxCell id="AWujn3hZ1XxI2UlkZ9dO-3" value="&lt;span style=&quot;font-size: 15px;&quot;&gt;MAP&lt;/span&gt;" style="rounded=0;whiteSpace=wrap;html=1;align=center;fillColor=none;fontFamily=Helvetica;" vertex="1" parent="1">
          <mxGeometry x="345" y="260" width="540" height="50" as="geometry" />
        </mxCell>
        <mxCell id="AWujn3hZ1XxI2UlkZ9dO-4" value="&lt;span style=&quot;font-size: 15px;&quot;&gt;RENAME&lt;/span&gt;" style="rounded=0;whiteSpace=wrap;html=1;align=center;fillColor=none;" vertex="1" parent="1">
          <mxGeometry x="345" y="330" width="540" height="50" as="geometry" />
        </mxCell>
        <mxCell id="AWujn3hZ1XxI2UlkZ9dO-5" value="&lt;span style=&quot;font-size: 15px;&quot;&gt;SCHEDULE&lt;/span&gt;" style="rounded=0;whiteSpace=wrap;html=1;align=center;fillColor=none;" vertex="1" parent="1">
          <mxGeometry x="345" y="450" width="540" height="50" as="geometry" />
        </mxCell>
        <mxCell id="AWujn3hZ1XxI2UlkZ9dO-6" value="&lt;span style=&quot;font-size: 15px;&quot;&gt;EXECUTE&lt;/span&gt;" style="rounded=0;whiteSpace=wrap;html=1;align=center;fillColor=none;" vertex="1" parent="1">
          <mxGeometry x="345" y="520" width="540" height="50" as="geometry" />
        </mxCell>
        <mxCell id="AWujn3hZ1XxI2UlkZ9dO-7" value="&lt;span style=&quot;font-size: 15px;&quot;&gt;RETIRE&lt;/span&gt;" style="rounded=0;whiteSpace=wrap;html=1;align=center;fillColor=none;" vertex="1" parent="1">
          <mxGeometry x="345" y="590" width="540" height="50" as="geometry" />
        </mxCell>
        <mxCell id="AWujn3hZ1XxI2UlkZ9dO-8" value="&lt;span style=&quot;font-size: 15px;&quot;&gt;RESERVATION STATION&lt;/span&gt;" style="rounded=0;whiteSpace=wrap;html=1;align=center;fillColor=none;" vertex="1" parent="1">
          <mxGeometry x="150" y="200" width="130" height="390" as="geometry" />
        </mxCell>
        <mxCell id="AWujn3hZ1XxI2UlkZ9dO-9" value="&lt;span style=&quot;font-size: 15px;&quot;&gt;PHYSICAL REGISTER FILE&lt;/span&gt;" style="rounded=0;whiteSpace=wrap;html=1;align=center;fillColor=none;" vertex="1" parent="1">
          <mxGeometry x="960" y="200" width="110" height="385" as="geometry" />
        </mxCell>
        <mxCell id="AWujn3hZ1XxI2UlkZ9dO-10" value="Branch Prediction" style="rounded=1;whiteSpace=wrap;html=1;fillColor=none;" vertex="1" parent="1">
          <mxGeometry x="700" y="115" width="80" height="60" as="geometry" />
        </mxCell>
        <mxCell id="AWujn3hZ1XxI2UlkZ9dO-11" value="PC Counter" style="rounded=1;whiteSpace=wrap;html=1;fillColor=none;" vertex="1" parent="1">
          <mxGeometry x="790" y="115" width="80" height="60" as="geometry" />
        </mxCell>
        <mxCell id="AWujn3hZ1XxI2UlkZ9dO-12" value="Register Renaming" style="rounded=1;whiteSpace=wrap;html=1;fillColor=none;" vertex="1" parent="1">
          <mxGeometry x="790" y="255" width="80" height="60" as="geometry" />
        </mxCell>
        <mxCell id="AWujn3hZ1XxI2UlkZ9dO-13" value="Reorder Buffer" style="rounded=1;whiteSpace=wrap;html=1;fillColor=none;" vertex="1" parent="1">
          <mxGeometry x="790" y="585" width="80" height="60" as="geometry" />
        </mxCell>
        <mxCell id="AWujn3hZ1XxI2UlkZ9dO-14" value="Load-Store Unit" style="rounded=1;whiteSpace=wrap;html=1;fillColor=none;" vertex="1" parent="1">
          <mxGeometry x="790" y="515" width="80" height="60" as="geometry" />
        </mxCell>
        <mxCell id="AWujn3hZ1XxI2UlkZ9dO-15" value="ALU" style="rounded=1;whiteSpace=wrap;html=1;fillColor=none;" vertex="1" parent="1">
          <mxGeometry x="700" y="515" width="80" height="60" as="geometry" />
        </mxCell>
        <mxCell id="AWujn3hZ1XxI2UlkZ9dO-17" value="&lt;font style=&quot;font-size: 20px;&quot;&gt;Front-End&lt;/font&gt;" style="rounded=0;whiteSpace=wrap;html=1;fillColor=none;dashed=1;align=left;verticalAlign=top;dashPattern=1 4;" vertex="1" parent="1">
          <mxGeometry x="310" y="-20" width="610" height="420" as="geometry" />
        </mxCell>
        <mxCell id="AWujn3hZ1XxI2UlkZ9dO-16" value="&lt;font style=&quot;font-size: 20px;&quot;&gt;Back-End&lt;/font&gt;" style="rounded=0;whiteSpace=wrap;html=1;fillColor=none;dashed=1;align=left;verticalAlign=bottom;dashPattern=1 4;" vertex="1" parent="1">
          <mxGeometry x="310" y="430" width="610" height="390" as="geometry" />
        </mxCell>
        <mxCell id="AWujn3hZ1XxI2UlkZ9dO-18" value="&lt;span style=&quot;font-size: 15px;&quot;&gt;PROGRAM MEMORY&lt;/span&gt;" style="rounded=0;whiteSpace=wrap;html=1;align=center;fillColor=none;" vertex="1" parent="1">
          <mxGeometry x="960" y="10" width="110" height="100" as="geometry" />
        </mxCell>
        <mxCell id="AWujn3hZ1XxI2UlkZ9dO-19" value="&lt;span style=&quot;font-size: 15px;&quot;&gt;DATA MEMORY&lt;/span&gt;" style="rounded=0;whiteSpace=wrap;html=1;align=center;fillColor=none;" vertex="1" parent="1">
          <mxGeometry x="960" y="645" width="110" height="100" as="geometry" />
        </mxCell>
        <mxCell id="AWujn3hZ1XxI2UlkZ9dO-22" value="" style="endArrow=classic;html=1;rounded=0;strokeWidth=1;" edge="1" parent="1">
          <mxGeometry width="50" height="50" relative="1" as="geometry">
            <mxPoint x="340" y="354.58" as="sourcePoint" />
            <mxPoint x="290" y="355" as="targetPoint" />
          </mxGeometry>
        </mxCell>
        <mxCell id="AWujn3hZ1XxI2UlkZ9dO-23" value="" style="endArrow=classic;html=1;rounded=0;strokeWidth=1;" edge="1" parent="1">
          <mxGeometry width="50" height="50" relative="1" as="geometry">
            <mxPoint x="290" y="474.586666666666" as="sourcePoint" />
            <mxPoint x="340" y="474.586666666666" as="targetPoint" />
          </mxGeometry>
        </mxCell>
        <mxCell id="AWujn3hZ1XxI2UlkZ9dO-24" value="" style="endArrow=classic;startArrow=classic;html=1;rounded=0;strokeWidth=1;" edge="1" parent="1">
          <mxGeometry width="50" height="50" relative="1" as="geometry">
            <mxPoint x="897" y="354.80000000000007" as="sourcePoint" />
            <mxPoint x="947" y="354.97" as="targetPoint" />
          </mxGeometry>
        </mxCell>
        <mxCell id="AWujn3hZ1XxI2UlkZ9dO-26" value="" style="endArrow=classic;html=1;rounded=0;strokeWidth=1;" edge="1" parent="1">
          <mxGeometry width="50" height="50" relative="1" as="geometry">
            <mxPoint x="900" y="614.5" as="sourcePoint" />
            <mxPoint x="1010" y="590" as="targetPoint" />
            <Array as="points">
              <mxPoint x="1010" y="615" />
            </Array>
          </mxGeometry>
        </mxCell>
        <mxCell id="AWujn3hZ1XxI2UlkZ9dO-28" value="" style="endArrow=classic;startArrow=classic;html=1;rounded=0;strokeWidth=1;" edge="1" parent="1">
          <mxGeometry width="50" height="50" relative="1" as="geometry">
            <mxPoint x="610" y="660" as="sourcePoint" />
            <mxPoint x="950" y="700" as="targetPoint" />
            <Array as="points">
              <mxPoint x="610" y="700" />
            </Array>
          </mxGeometry>
        </mxCell>
        <mxCell id="AWujn3hZ1XxI2UlkZ9dO-30" value="" style="endArrow=classic;startArrow=classic;html=1;rounded=0;strokeWidth=1;" edge="1" parent="1">
          <mxGeometry width="50" height="50" relative="1" as="geometry">
            <mxPoint x="610" y="100" as="sourcePoint" />
            <mxPoint x="950" y="60" as="targetPoint" />
            <Array as="points">
              <mxPoint x="610" y="60" />
            </Array>
          </mxGeometry>
        </mxCell>
      </root>
    </mxGraphModel>
  </diagram>
</mxfile>
